<svg width="18" height="19" viewBox="0 0 18 19" fill="none" xmlns="http://www.w3.org/2000/svg">
<path fill-rule="evenodd" clip-rule="evenodd" d="M8.6149 0.648407C8.6149 5.32421 4.82441 9.1147 0.148605 9.1147C0.0994091 9.1147 0.0503109 9.11428 0.00131411 9.11345C0.000479854 9.0645 6.10416e-05 9.01544 6.10416e-05 8.96629C6.10416e-05 4.29049 3.79055 0.5 8.46635 0.5C8.51555 0.5 8.56465 0.50042 8.61365 0.501255C8.61448 0.550206 8.6149 0.599258 8.6149 0.648407ZM18.0002 10.0337C18.0002 14.7095 14.2097 18.5 9.53386 18.5C9.48465 18.5 9.43554 18.4996 9.38652 18.4987C9.38569 18.4498 9.38527 18.4008 9.38527 18.3516C9.38527 13.6758 13.1758 9.88535 17.8516 9.88535C17.9008 9.88535 17.9499 9.88577 17.9989 9.8866C17.9997 9.93554 18.0002 9.98457 18.0002 10.0337ZM9.38522 0.648407C9.38522 5.32421 13.1757 9.1147 17.8515 9.1147C17.9007 9.1147 17.9498 9.11428 17.9988 9.11345C17.9996 9.0645 18.0001 9.01544 18.0001 8.96629C18.0001 4.29049 14.2096 0.5 9.53377 0.5C9.48457 0.5 9.43547 0.500419 9.38648 0.501255C9.38564 0.550206 9.38522 0.599257 9.38522 0.648407ZM8.46629 18.5C3.79049 18.5 -2.04389e-07 14.7095 0 10.0337C2.14642e-09 9.98457 0.000418667 9.93554 0.00125218 9.8866C0.0502539 9.88577 0.0993576 9.88535 0.14856 9.88535C4.82436 9.88535 8.61485 13.6758 8.61485 18.3516C8.61485 18.4008 8.61443 18.4498 8.6136 18.4987C8.5646 18.4996 8.51549 18.5 8.46629 18.5Z" fill="url(#paint0_linear_1068_1782)" style=""/>
<defs>
<linearGradient id="paint0_linear_1068_1782" x1="9.00006" y1="0.5" x2="9.00006" y2="18.5" gradientUnits="userSpaceOnUse">
<stop stop-color="#FFCC00" style="stop-color:#FFCC00;stop-color:color(display-p3 1.0000 0.8000 0.0000);stop-opacity:1;"/>
<stop offset="1" stop-color="#EF6F26" style="stop-color:#EF6F26;stop-color:color(display-p3 0.9369 0.4337 0.1506);stop-opacity:1;"/>
</linearGradient>
</defs>
</svg>
