<svg width="32" height="32" viewBox="0 0 32 32" fill="none" xmlns="http://www.w3.org/2000/svg">
    <path fill-rule="evenodd" clip-rule="evenodd" d="M21.7649 0C22.3851 0 23.0958 0.0103792 23.8077 0.02572C25.2022 0.0557737 25.8995 0.0708005 26.467 0.366156C26.9535 0.619357 27.3806 1.04646 27.6338 1.53299C27.9292 2.10051 27.9442 2.79778 27.9743 4.19232C27.9896 4.90416 28 5.61493 28 6.23508C28 6.85523 27.9896 7.56599 27.9743 8.27783C27.9442 9.67237 27.9292 10.3696 27.6338 10.9372C27.3806 11.4237 26.9535 11.8508 26.467 12.104C25.8995 12.3994 25.2022 12.4144 23.8077 12.4444C23.0958 12.4598 22.3851 12.4702 21.7649 12.4702C20.6772 12.4702 20.1333 12.4702 19.7427 12.5891C18.8203 12.87 18.1931 13.4991 17.9152 14.4224C17.7975 14.8134 17.7993 15.3678 17.8028 16.4765C17.8029 16.5212 17.803 16.5656 17.803 16.6095C17.803 17.2564 17.7874 17.985 17.7632 18.7252C17.7248 19.9052 18.6796 20.8764 19.8601 20.8764C20.2936 20.8764 20.7768 20.8828 21.2711 20.893C22.6443 20.9213 23.3309 20.9354 23.8992 21.2309C24.3825 21.4822 24.8162 21.9159 25.0675 22.3992C25.363 22.9675 25.3771 23.6541 25.4054 25.0273C25.4156 25.5216 25.422 26.0048 25.422 26.4383C25.422 26.8717 25.4156 27.3549 25.4054 27.8493C25.3771 29.2224 25.363 29.909 25.0675 30.4774C24.8162 30.9606 24.3825 31.3943 23.8992 31.6456C23.3309 31.9411 22.6443 31.9553 21.2711 31.9836C20.7768 31.9938 20.2936 32.0002 19.8601 32.0002C19.4267 32.0002 18.9435 31.9938 18.4491 31.9836C17.076 31.9553 16.3894 31.9411 15.821 31.6456C15.3378 31.3943 14.9041 30.9606 14.6528 30.4774C14.3573 29.909 14.3431 29.2224 14.3148 27.8493C14.3046 27.3549 14.2982 26.8717 14.2982 26.4383C14.2982 25.1793 13.2641 24.1608 12.0057 24.198C11.3675 24.2168 10.745 24.2286 10.1839 24.2286C9.13463 24.2286 7.87024 24.1875 6.69002 24.1356C5.37488 24.0776 4.71731 24.0487 4.16965 23.7574C3.70337 23.5094 3.28411 23.0901 3.0361 22.6238C2.74479 22.0762 2.71584 21.4186 2.65792 20.1035C2.60595 18.9232 2.56489 17.6588 2.56489 16.6095C2.56489 15.5602 2.60595 14.2958 2.65792 13.1156C2.71584 11.8005 2.74479 11.1429 3.0361 10.5952C3.28411 10.129 3.70337 9.70971 4.16965 9.4617C4.71731 9.17039 5.37488 9.14143 6.69001 9.08352C7.87024 9.03154 9.13463 8.99049 10.1839 8.99049C10.9288 8.99049 11.7821 9.01118 12.6367 9.04178C14.221 9.0985 15.5298 7.82037 15.5298 6.23508C15.5298 5.61493 15.5402 4.90416 15.5556 4.19232C15.5856 2.79778 15.6006 2.10051 15.896 1.53299C16.1492 1.04646 16.5763 0.619357 17.0628 0.366156C17.6304 0.0708005 18.3276 0.0557737 19.7222 0.02572C20.434 0.0103792 21.1448 0 21.7649 0Z" fill="url(#paint0_linear_1742_6754)" style=""/>
    <defs>
        <linearGradient id="paint0_linear_1742_6754" x1="15.2825" y1="0" x2="15.2825" y2="32" gradientUnits="userSpaceOnUse">
            <stop stop-color="#F09000" style="stop-color:#F09000;stop-color:color(display-p3 0.9401 0.5641 0.0000);stop-opacity:1;"/>
            <stop offset="1" stop-color="#EF6F26" style="stop-color:#EF6F26;stop-color:color(display-p3 0.9369 0.4337 0.1506);stop-opacity:1;"/>
        </linearGradient>
    </defs>
</svg>
