<svg width="116" height="32" viewBox="0 0 116 32" fill="none" xmlns="http://www.w3.org/2000/svg">
    <path fill-rule="evenodd" clip-rule="evenodd" d="M21.7649 0C22.3851 0 23.0958 0.0103792 23.8077 0.02572C25.2022 0.0557737 25.8995 0.0708005 26.467 0.366156C26.9535 0.619357 27.3806 1.04646 27.6338 1.53299C27.9292 2.10051 27.9442 2.79778 27.9743 4.19232C27.9896 4.90416 28 5.61493 28 6.23508C28 6.85523 27.9896 7.56599 27.9743 8.27783C27.9442 9.67237 27.9292 10.3696 27.6338 10.9372C27.3806 11.4237 26.9535 11.8508 26.467 12.104C25.8995 12.3994 25.2022 12.4144 23.8077 12.4444C23.0958 12.4598 22.3851 12.4702 21.7649 12.4702C20.6772 12.4702 20.1333 12.4702 19.7427 12.5891C18.8203 12.87 18.1931 13.4991 17.9152 14.4224C17.7975 14.8134 17.7993 15.3678 17.8028 16.4765C17.8029 16.5212 17.803 16.5656 17.803 16.6095C17.803 17.2564 17.7874 17.985 17.7632 18.7252C17.7248 19.9052 18.6796 20.8764 19.8601 20.8764C20.2936 20.8764 20.7768 20.8828 21.2711 20.893C22.6443 20.9213 23.3309 20.9354 23.8992 21.2309C24.3825 21.4822 24.8162 21.9159 25.0675 22.3992C25.363 22.9675 25.3771 23.6541 25.4054 25.0273C25.4156 25.5216 25.422 26.0048 25.422 26.4383C25.422 26.8717 25.4156 27.3549 25.4054 27.8493C25.3771 29.2224 25.363 29.909 25.0675 30.4774C24.8162 30.9606 24.3825 31.3943 23.8992 31.6456C23.3309 31.9411 22.6443 31.9553 21.2711 31.9836C20.7768 31.9938 20.2936 32.0002 19.8601 32.0002C19.4267 32.0002 18.9435 31.9938 18.4491 31.9836C17.076 31.9553 16.3894 31.9411 15.821 31.6456C15.3378 31.3943 14.9041 30.9606 14.6528 30.4774C14.3573 29.909 14.3431 29.2224 14.3148 27.8493C14.3046 27.3549 14.2982 26.8717 14.2982 26.4383C14.2982 25.1793 13.2641 24.1608 12.0057 24.198C11.3675 24.2168 10.745 24.2286 10.1839 24.2286C9.13463 24.2286 7.87024 24.1875 6.69002 24.1356C5.37488 24.0776 4.71731 24.0487 4.16965 23.7574C3.70337 23.5094 3.28411 23.0901 3.0361 22.6238C2.74479 22.0762 2.71584 21.4186 2.65792 20.1035C2.60595 18.9232 2.56489 17.6588 2.56489 16.6095C2.56489 15.5602 2.60595 14.2958 2.65792 13.1156C2.71584 11.8005 2.74479 11.1429 3.0361 10.5952C3.28411 10.129 3.70337 9.70971 4.16965 9.4617C4.71731 9.17039 5.37488 9.14143 6.69001 9.08352C7.87024 9.03154 9.13462 8.99049 10.1839 8.99049C10.9288 8.99049 11.7821 9.01118 12.6367 9.04178C14.221 9.0985 15.5298 7.82037 15.5298 6.23508C15.5298 5.61493 15.5402 4.90416 15.5556 4.19232C15.5856 2.79778 15.6006 2.10051 15.896 1.53299C16.1492 1.04646 16.5763 0.619357 17.0628 0.366156C17.6304 0.0708005 18.3276 0.0557737 19.7222 0.02572C20.434 0.0103792 21.1448 0 21.7649 0Z" fill="url(#paint0_linear_1683_2825)" style=""/>
    <path d="M56.3634 14.3864H53.9124C53.8561 14.0282 53.7474 13.7102 53.5865 13.4325C53.4255 13.1548 53.2222 12.9194 52.9767 12.7262C52.7312 12.529 52.4495 12.3801 52.1316 12.2795C51.8176 12.1789 51.4775 12.1286 51.1113 12.1286C50.4553 12.1286 49.8778 12.2915 49.3787 12.6175C48.8837 12.9435 48.4973 13.4184 48.2196 14.0423C47.9419 14.6661 47.8031 15.4247 47.8031 16.3182C47.8031 17.2318 47.9419 18.0005 48.2196 18.6243C48.5013 19.2441 48.8897 19.7129 49.3847 20.0309C49.8838 20.3488 50.4553 20.5078 51.0992 20.5078C51.4615 20.5078 51.7975 20.4595 52.1074 20.3629C52.4213 20.2663 52.701 20.1255 52.9465 19.9403C53.192 19.7552 53.3973 19.5278 53.5623 19.2582C53.7313 18.9885 53.8481 18.6806 53.9124 18.3345L56.3634 18.3466C56.287 18.9221 56.1099 19.4715 55.8322 19.9947C55.5585 20.5138 55.1943 20.9747 54.7395 21.3771C54.2887 21.7796 53.7535 22.0955 53.1337 22.3249C52.5179 22.5543 51.8277 22.669 51.063 22.669C49.9683 22.669 48.9903 22.4195 48.1291 21.9205C47.2718 21.4174 46.5937 20.6929 46.0946 19.7472C45.5996 18.7973 45.3521 17.6544 45.3521 16.3182C45.3521 14.978 45.6016 13.835 46.1007 12.8892C46.6037 11.9394 47.2859 11.215 48.1472 10.7159C49.0084 10.2169 49.9804 9.96733 51.063 9.96733C51.7673 9.96733 52.4193 10.0659 53.019 10.2631C53.6227 10.4603 54.1579 10.7481 54.6248 11.1264C55.0957 11.5047 55.48 11.9676 55.7779 12.5149C56.0797 13.0582 56.2749 13.6821 56.3634 14.3864ZM62.1592 22.6811C61.2376 22.6811 60.4407 22.4819 59.7686 22.0835C59.0965 21.681 58.5753 21.1216 58.2051 20.4052C57.8388 19.6888 57.6557 18.8537 57.6557 17.8999C57.6557 16.942 57.8388 16.1029 58.2051 15.3825C58.5753 14.662 59.0965 14.1026 59.7686 13.7042C60.4407 13.3058 61.2376 13.1065 62.1592 13.1065C63.0809 13.1065 63.8778 13.3058 64.5499 13.7042C65.226 14.1026 65.7472 14.662 66.1134 15.3825C66.4797 16.1029 66.6628 16.942 66.6628 17.8999C66.6628 18.8537 66.4797 19.6888 66.1134 20.4052C65.7472 21.1216 65.226 21.681 64.5499 22.0835C63.8778 22.4819 63.0809 22.6811 62.1592 22.6811ZM62.1713 20.8097C62.6301 20.8097 63.0125 20.6809 63.3183 20.4233C63.6282 20.1657 63.8596 19.8176 64.0126 19.3789C64.1695 18.9362 64.248 18.4392 64.248 17.8878C64.248 17.3324 64.1695 16.8353 64.0126 16.3967C63.8596 15.954 63.6282 15.6038 63.3183 15.3462C63.0125 15.0846 62.6301 14.9538 62.1713 14.9538C61.7045 14.9538 61.3141 15.0846 61.0002 15.3462C60.6903 15.6038 60.4568 15.954 60.2999 16.3967C60.1469 16.8353 60.0705 17.3324 60.0705 17.8878C60.0705 18.4392 60.1469 18.9362 60.2999 19.3789C60.4568 19.8176 60.6903 20.1657 61.0002 20.4233C61.3141 20.6809 61.7045 20.8097 62.1713 20.8097ZM70.5766 17.103V22.5H68.198V13.2273H70.4679V14.8331H70.5766C70.7859 14.3018 71.128 13.8813 71.6029 13.5714C72.0818 13.2615 72.6654 13.1065 73.3536 13.1065C73.9975 13.1065 74.5569 13.2454 75.0318 13.5231C75.5108 13.8008 75.883 14.1992 76.1487 14.7184C76.4143 15.2376 76.5451 15.8634 76.5411 16.5959V22.5H74.1625V16.9943C74.1665 16.3987 74.0136 15.9338 73.7037 15.5998C73.3978 15.2657 72.9753 15.0987 72.436 15.0987C72.0737 15.0987 71.7518 15.1772 71.47 15.3342C71.1923 15.4911 70.975 15.7205 70.8181 16.0224C70.6611 16.3202 70.5806 16.6804 70.5766 17.103ZM83.2349 13.2273V15.0384H77.7775V13.2273H83.2349ZM79.0694 11.0057H81.4479V19.6808C81.4479 19.9464 81.4882 20.1516 81.5687 20.2965C81.6532 20.4374 81.7639 20.536 81.9007 20.5923C82.0416 20.6446 82.2005 20.6708 82.3776 20.6708C82.5064 20.6708 82.6292 20.6607 82.7459 20.6406C82.8666 20.6165 82.9572 20.5984 83.0175 20.5863L83.4039 22.3974C83.2832 22.4376 83.1101 22.4819 82.8847 22.5302C82.6593 22.5825 82.3857 22.6147 82.0637 22.6268C81.4801 22.6469 80.963 22.5644 80.5122 22.3793C80.0615 22.1901 79.7073 21.9003 79.4497 21.5099C79.1921 21.1155 79.0654 20.6225 79.0694 20.0309V11.0057ZM84.758 22.5V13.2273H87.0641V14.8089H87.1607C87.3298 14.2536 87.6175 13.829 88.024 13.5352C88.4305 13.2414 88.8953 13.0945 89.4185 13.0945C89.5433 13.0945 89.6801 13.1005 89.8291 13.1126C89.982 13.1246 90.1108 13.1428 90.2154 13.1669V15.3161C90.1108 15.2798 89.9538 15.2496 89.7445 15.2255C89.5393 15.1973 89.3461 15.1832 89.165 15.1832C88.7786 15.1832 88.4325 15.2678 88.1266 15.4368C87.8208 15.6018 87.5793 15.8332 87.4022 16.131C87.2251 16.4248 87.1366 16.7649 87.1366 17.1513V22.5H84.758ZM91.3779 22.5V13.2273H93.7564V22.5H91.3779ZM92.5732 11.9716C92.211 11.9716 91.8991 11.8509 91.6375 11.6094C91.3759 11.3639 91.2451 11.0701 91.2451 10.728C91.2451 10.3859 91.3759 10.0941 91.6375 9.85263C91.8991 9.60713 92.211 9.48438 92.5732 9.48438C92.9394 9.48438 93.2513 9.60713 93.5089 9.85263C93.7705 10.0941 93.9013 10.3859 93.9013 10.728C93.9013 11.0701 93.7705 11.3639 93.5089 11.6094C93.2513 11.8509 92.9394 11.9716 92.5732 11.9716ZM95.7625 22.5V10.1364H98.1411V14.7727H98.2256C98.3383 14.5353 98.4993 14.2878 98.7086 14.0302C98.9219 13.7726 99.2016 13.5553 99.5477 13.3782C99.8978 13.1971 100.339 13.1065 100.87 13.1065C101.566 13.1065 102.202 13.2856 102.777 13.6438C103.353 14.002 103.81 14.5353 104.148 15.2436C104.49 15.9519 104.661 16.8293 104.661 17.8757C104.661 18.902 104.494 19.7713 104.16 20.4837C103.83 21.192 103.377 21.7313 102.802 22.1016C102.23 22.4718 101.586 22.657 100.87 22.657C100.355 22.657 99.922 22.5724 99.5718 22.4034C99.2257 22.2304 98.944 22.0191 98.7267 21.7695C98.5093 21.516 98.3423 21.2685 98.2256 21.027H98.1049V22.5H95.7625ZM98.0928 17.8636C98.0928 18.4392 98.1733 18.9422 98.3343 19.3729C98.4993 19.8035 98.7347 20.1396 99.0406 20.381C99.3465 20.6185 99.7187 20.7372 100.157 20.7372C100.608 20.7372 100.987 20.6145 101.292 20.369C101.602 20.1235 101.836 19.7854 101.993 19.3548C102.154 18.9201 102.234 18.4231 102.234 17.8636C102.234 17.3082 102.156 16.8172 101.999 16.3906C101.842 15.964 101.608 15.63 101.298 15.3885C100.993 15.147 100.612 15.0263 100.157 15.0263C99.7147 15.0263 99.3404 15.143 99.0346 15.3764C98.7287 15.6098 98.4953 15.9399 98.3343 16.3665C98.1733 16.7891 98.0928 17.2881 98.0928 17.8636ZM110.345 22.6811C109.423 22.6811 108.627 22.4819 107.954 22.0835C107.282 21.681 106.761 21.1216 106.391 20.4052C106.025 19.6888 105.842 18.8537 105.842 17.8999C105.842 16.942 106.025 16.1029 106.391 15.3825C106.761 14.662 107.282 14.1026 107.954 13.7042C108.627 13.3058 109.423 13.1065 110.345 13.1065C111.267 13.1065 112.064 13.3058 112.736 13.7042C113.412 14.1026 113.933 14.662 114.299 15.3825C114.666 16.1029 114.849 16.942 114.849 17.8999C114.849 18.8537 114.666 19.6888 114.299 20.4052C113.933 21.1216 113.412 21.681 112.736 22.0835C112.064 22.4819 111.267 22.6811 110.345 22.6811ZM110.357 20.8097C110.816 20.8097 111.198 20.6809 111.504 20.4233C111.814 20.1657 112.046 19.8176 112.198 19.3789C112.355 18.9362 112.434 18.4392 112.434 17.8878C112.434 17.3324 112.355 16.8353 112.198 16.3967C112.046 15.954 111.814 15.6038 111.504 15.3462C111.198 15.0846 110.816 14.9538 110.357 14.9538C109.89 14.9538 109.5 15.0846 109.186 15.3462C108.876 15.6038 108.643 15.954 108.486 16.3967C108.333 16.8353 108.256 17.3324 108.256 17.8878C108.256 18.4392 108.333 18.9362 108.486 19.3789C108.643 19.8176 108.876 20.1657 109.186 20.4233C109.5 20.6809 109.89 20.8097 110.357 20.8097Z" fill="#171717" style="fill:#171717;fill:color(display-p3 0.0883 0.0883 0.0883);fill-opacity:1;"/>
    <defs>
        <linearGradient id="paint0_linear_1683_2825" x1="15.2825" y1="0" x2="15.2825" y2="32" gradientUnits="userSpaceOnUse">
            <stop stop-color="#F09000" style="stop-color:#F09000;stop-color:color(display-p3 0.9401 0.5641 0.0000);stop-opacity:1;"/>
            <stop offset="1" stop-color="#EF6F26" style="stop-color:#EF6F26;stop-color:color(display-p3 0.9369 0.4337 0.1506);stop-opacity:1;"/>
        </linearGradient>
    </defs>
</svg>
