<svg width="80" height="80" viewBox="0 0 80 80" fill="none" xmlns="http://www.w3.org/2000/svg">
    <path d="M27.2158 8.0498C33.1559 5.59362 39.6736 4.89452 45.9932 6.02832L46.6045 6.14355C51.1571 7.04759 55.4503 8.88026 59.2256 11.5029L59.9746 12.0381C61.9569 13.4976 61.9903 16.3976 60.1738 18.2109C58.4436 19.9379 55.6289 19.9866 53.4258 18.6865L53.2148 18.5557C50.8218 17.0207 48.1672 15.9099 45.3682 15.2852L44.8057 15.167C40.2318 14.2588 35.4961 14.6815 31.1611 16.3809L30.7432 16.5498C26.4347 18.3314 22.7321 21.3095 20.0732 25.127L19.8193 25.499C17.1447 29.4952 15.7168 34.1937 15.7168 39L15.7217 39.4502C15.8079 44.0992 17.2283 48.6297 19.8193 52.501C22.494 56.497 26.2957 59.6111 30.7432 61.4502C35.0518 63.2319 39.7795 63.7395 44.3633 62.917L44.8057 62.833C47.6237 62.2734 50.3049 61.2233 52.7324 59.7451L53.2148 59.4443C55.3769 58.0575 58.2055 58.0076 60.0039 59.627L60.1738 59.7891C61.9337 61.5459 61.9573 64.3226 60.1543 65.8213L59.9746 65.9619C56.2695 68.6895 52.0287 70.6358 47.5117 71.6631L46.6045 71.8564C40.2982 73.1087 33.7688 72.5247 27.792 70.1816L27.2158 69.9502C21.0839 67.4146 15.8425 63.1203 12.1553 57.6113C8.46803 52.1023 6.5 45.6255 6.5 39L6.50586 38.3789C6.62102 32.1772 8.45879 26.1287 11.8145 20.9082L12.1553 20.3887C15.7274 15.0517 20.7577 10.8553 26.6436 8.29297L27.2158 8.0498Z" fill="#F0ECE5" stroke="#E9E3D8" style="fill:#F0ECE5;fill:color(display-p3 0.9412 0.9255 0.8980);fill-opacity:1;stroke:#E9E3D8;stroke:color(display-p3 0.9122 0.8888 0.8478);stroke-opacity:1;"/>
    <path d="M27.123 45.2727V32.5455H27.9383V45.2727H27.123ZM29.4745 36.6172C29.4281 36.183 29.2326 35.8449 28.8879 35.603C28.5465 35.361 28.1024 35.2401 27.5555 35.2401C27.171 35.2401 26.8412 35.2981 26.5661 35.4141C26.291 35.5301 26.0806 35.6875 25.9347 35.8864C25.7889 36.0852 25.7143 36.3123 25.711 36.5675C25.711 36.7796 25.7591 36.9635 25.8552 37.1193C25.9546 37.2751 26.0889 37.4077 26.2579 37.517C26.4269 37.6231 26.6142 37.7126 26.8197 37.7855C27.0252 37.8584 27.2323 37.9197 27.4411 37.9695L28.3957 38.2081C28.7802 38.2976 29.1497 38.4186 29.5043 38.571C29.8623 38.7235 30.1821 38.9157 30.4639 39.1477C30.7489 39.3797 30.9743 39.6598 31.14 39.9879C31.3057 40.3161 31.3886 40.7005 31.3886 41.1413C31.3886 41.7379 31.2361 42.2633 30.9312 42.7173C30.6263 43.1681 30.1855 43.5211 29.6087 43.7763C29.0354 44.0282 28.341 44.1541 27.5257 44.1541C26.7335 44.1541 26.0458 44.0315 25.4624 43.7862C24.8824 43.541 24.4284 43.183 24.1002 42.7124C23.7754 42.2417 23.5998 41.6683 23.5732 40.9922H25.3879C25.4144 41.3468 25.5238 41.6418 25.716 41.8771C25.9082 42.1125 26.1585 42.2881 26.4667 42.4041C26.7783 42.5201 27.1263 42.5781 27.5107 42.5781C27.9118 42.5781 28.2631 42.5185 28.5647 42.3991C28.8696 42.2765 29.1083 42.1075 29.2806 41.892C29.453 41.6733 29.5408 41.4181 29.5441 41.1264C29.5408 40.8613 29.4629 40.6425 29.3105 40.4702C29.158 40.2945 28.9442 40.1487 28.6691 40.0327C28.3973 39.9134 28.0792 39.8073 27.7146 39.7145L26.5562 39.4162C25.7177 39.2008 25.0548 38.8743 24.5676 38.4368C24.0837 37.996 23.8417 37.411 23.8417 36.6818C23.8417 36.0819 24.0041 35.5566 24.3289 35.1058C24.657 34.6551 25.1028 34.3054 25.6663 34.0568C26.2297 33.8049 26.8677 33.679 27.5803 33.679C28.3029 33.679 28.9359 33.8049 29.4795 34.0568C30.0264 34.3054 30.4556 34.6518 30.7671 35.0959C31.0787 35.5367 31.2394 36.0438 31.2494 36.6172H29.4745ZM32.8035 44V42.6676L36.3383 39.2024C36.6764 38.861 36.9581 38.5578 37.1835 38.2926C37.4089 38.0275 37.5779 37.7706 37.6906 37.522C37.8033 37.2734 37.8596 37.0083 37.8596 36.7266C37.8596 36.4051 37.7867 36.13 37.6409 35.9013C37.495 35.6693 37.2945 35.4903 37.0393 35.3643C36.7841 35.2384 36.4941 35.1754 36.1693 35.1754C35.8345 35.1754 35.5412 35.245 35.2893 35.3842C35.0374 35.5201 34.8419 35.714 34.7026 35.9659C34.5668 36.2178 34.4988 36.5178 34.4988 36.8658H32.7438C32.7438 36.2195 32.8913 35.6577 33.1863 35.1804C33.4813 34.7031 33.8873 34.3336 34.4044 34.0717C34.9247 33.8099 35.5213 33.679 36.1941 33.679C36.8769 33.679 37.4768 33.8066 37.9938 34.0618C38.5109 34.317 38.9119 34.6667 39.197 35.1108C39.4853 35.5549 39.6295 36.062 39.6295 36.6321C39.6295 37.0133 39.5566 37.3878 39.4107 37.7557C39.2649 38.1236 39.008 38.5312 38.6401 38.9787C38.2756 39.4261 37.7635 39.968 37.1039 40.6044L35.349 42.3892V42.4588H39.7836V44H32.8035ZM41.3688 44V42.6676L44.9036 39.2024C45.2417 38.861 45.5234 38.5578 45.7488 38.2926C45.9742 38.0275 46.1432 37.7706 46.2559 37.522C46.3686 37.2734 46.4249 37.0083 46.4249 36.7266C46.4249 36.4051 46.352 36.13 46.2062 35.9013C46.0603 35.6693 45.8598 35.4903 45.6046 35.3643C45.3494 35.2384 45.0594 35.1754 44.7346 35.1754C44.3998 35.1754 44.1065 35.245 43.8546 35.3842C43.6027 35.5201 43.4072 35.714 43.268 35.9659C43.1321 36.2178 43.0641 36.5178 43.0641 36.8658H41.3092C41.3092 36.2195 41.4566 35.6577 41.7516 35.1804C42.0466 34.7031 42.4526 34.3336 42.9697 34.0717C43.49 33.8099 44.0866 33.679 44.7594 33.679C45.4422 33.679 46.0421 33.8066 46.5592 34.0618C47.0762 34.317 47.4772 34.6667 47.7623 35.1108C48.0506 35.5549 48.1948 36.062 48.1948 36.6321C48.1948 37.0133 48.1219 37.3878 47.9761 37.7557C47.8302 38.1236 47.5734 38.5312 47.2055 38.9787C46.8409 39.4261 46.3288 39.968 45.6692 40.6044L43.9143 42.3892V42.4588H48.3489V44H41.3688ZM51.5946 41.6037L51.5897 39.4311H51.878L54.6223 36.3636H56.7253L53.3496 40.1222H52.9767L51.5946 41.6037ZM49.954 44V33.8182H51.7537V44H49.954ZM54.7466 44L52.2608 40.5249L53.4739 39.2571L56.8993 44H54.7466Z" fill="#201C13" style="fill:#201C13;fill:color(display-p3 0.1273 0.1091 0.0727);fill-opacity:1;"/>
    <g filter="url(#filter0_d_1683_2856)">
        <mask id="path-3-inside-1_1683_2856" fill="white">
            <path fill-rule="evenodd" clip-rule="evenodd" d="M16 39C16 43.7467 17.4076 48.3869 20.0447 52.3337C22.6819 56.2805 26.4302 59.3566 30.8156 61.1731C35.201 62.9896 40.0266 63.4649 44.6822 62.5388C49.3377 61.6128 53.6141 59.327 56.9706 55.9706C60.327 52.6141 62.6128 48.3377 63.5388 43.6822C64.4649 39.0266 63.9896 34.201 62.1731 29.8156C60.3566 25.4302 57.2805 21.6819 53.3337 19.0447C49.3869 16.4076 44.7467 15 40 15C37.2386 15 35 12.7614 35 10C35 7.23857 37.2386 5 40 5C46.7246 5 53.2981 6.99407 58.8894 10.73C64.4807 14.466 68.8385 19.7761 71.4119 25.9888C73.9853 32.2014 74.6586 39.0377 73.3467 45.6331C72.0348 52.2284 68.7966 58.2866 64.0416 63.0416C59.2866 67.7966 53.2284 71.0348 46.6331 72.3467C40.0377 73.6586 33.2015 72.9853 26.9888 70.4119C20.7761 67.8385 15.466 63.4807 11.73 57.8894C7.99407 52.2981 6 45.7246 6 39C6 36.2386 8.23858 34 11 34C13.7614 34 16 36.2386 16 39Z"/>
        </mask>
        <path fill-rule="evenodd" clip-rule="evenodd" d="M16 39C16 43.7467 17.4076 48.3869 20.0447 52.3337C22.6819 56.2805 26.4302 59.3566 30.8156 61.1731C35.201 62.9896 40.0266 63.4649 44.6822 62.5388C49.3377 61.6128 53.6141 59.327 56.9706 55.9706C60.327 52.6141 62.6128 48.3377 63.5388 43.6822C64.4649 39.0266 63.9896 34.201 62.1731 29.8156C60.3566 25.4302 57.2805 21.6819 53.3337 19.0447C49.3869 16.4076 44.7467 15 40 15C37.2386 15 35 12.7614 35 10C35 7.23857 37.2386 5 40 5C46.7246 5 53.2981 6.99407 58.8894 10.73C64.4807 14.466 68.8385 19.7761 71.4119 25.9888C73.9853 32.2014 74.6586 39.0377 73.3467 45.6331C72.0348 52.2284 68.7966 58.2866 64.0416 63.0416C59.2866 67.7966 53.2284 71.0348 46.6331 72.3467C40.0377 73.6586 33.2015 72.9853 26.9888 70.4119C20.7761 67.8385 15.466 63.4807 11.73 57.8894C7.99407 52.2981 6 45.7246 6 39C6 36.2386 8.23858 34 11 34C13.7614 34 16 36.2386 16 39Z" fill="url(#paint0_linear_1683_2856)" style=""/>
        <path d="M20.0447 52.3337L19.2133 52.8893L20.0447 52.3337ZM16 39H15H16ZM30.8156 61.1731L31.1983 60.2492L30.8156 61.1731ZM44.6822 62.5388L44.8773 63.5196L44.6822 62.5388ZM56.9706 55.9706L56.2635 55.2635L56.9706 55.9706ZM62.1731 29.8156L63.097 29.4329V29.4329L62.1731 29.8156ZM58.8894 10.73L59.445 9.89856V9.89856L58.8894 10.73ZM71.4119 25.9888L70.488 26.3714L71.4119 25.9888ZM73.3467 45.6331L74.3275 45.8282L73.3467 45.6331ZM64.0416 63.0416L64.7487 63.7487L64.0416 63.0416ZM46.6331 72.3467L46.8282 73.3275L46.6331 72.3467ZM26.9888 70.4119L26.6061 71.3358L26.9888 70.4119ZM11.73 57.8894L10.8986 58.445L11.73 57.8894ZM20.8762 51.7781C18.3489 47.9958 17 43.549 17 39H15C15 43.9445 16.4662 48.778 19.2133 52.8893L20.8762 51.7781ZM31.1983 60.2492C26.9956 58.5084 23.4035 55.5604 20.8762 51.7781L19.2133 52.8893C21.9603 57.0005 25.8648 60.2048 30.4329 62.097L31.1983 60.2492ZM44.4871 61.5581C40.0255 62.4455 35.401 61.99 31.1983 60.2492L30.4329 62.097C35.0011 63.9892 40.0277 64.4843 44.8773 63.5196L44.4871 61.5581ZM56.2635 55.2635C53.0468 58.4801 48.9486 60.6706 44.4871 61.5581L44.8773 63.5196C49.7268 62.555 54.1814 60.174 57.6777 56.6777L56.2635 55.2635ZM62.5581 43.4871C61.6706 47.9486 59.4801 52.0468 56.2635 55.2635L57.6777 56.6777C61.174 53.1814 63.555 48.7268 64.5196 43.8773L62.5581 43.4871ZM61.2492 30.1983C62.99 34.401 63.4455 39.0255 62.5581 43.4871L64.5196 43.8773C65.4843 39.0277 64.9892 34.0011 63.097 29.4329L61.2492 30.1983ZM52.7781 19.8762C56.5604 22.4035 59.5084 25.9956 61.2492 30.1983L63.097 29.4329C61.2048 24.8648 58.0005 20.9603 53.8893 18.2133L52.7781 19.8762ZM40 16C44.549 16 48.9958 17.3489 52.7781 19.8762L53.8893 18.2133C49.778 15.4662 44.9445 14 40 14V16ZM34 10C34 13.3137 36.6863 16 40 16V14C37.7909 14 36 12.2091 36 10H34ZM40 4C36.6863 4 34 6.68629 34 10H36C36 7.79086 37.7909 6 40 6V4ZM59.445 9.89856C53.6892 6.05272 46.9223 4 40 4V6C46.5268 6 52.907 7.93542 58.3338 11.5615L59.445 9.89856ZM72.3358 25.6061C69.6867 19.2107 65.2007 13.7444 59.445 9.89856L58.3338 11.5615C63.7606 15.1876 67.9903 20.3415 70.488 26.3714L72.3358 25.6061ZM74.3275 45.8282C75.678 39.0388 74.9848 32.0015 72.3358 25.6061L70.488 26.3714C72.9857 32.4014 73.6392 39.0366 72.3659 45.438L74.3275 45.8282ZM64.7487 63.7487C69.6436 58.8539 72.977 52.6175 74.3275 45.8282L72.3659 45.438C71.0926 51.8394 67.9497 57.7194 63.3345 62.3345L64.7487 63.7487ZM46.8282 73.3275C53.6175 71.977 59.8539 68.6436 64.7487 63.7487L63.3345 62.3345C58.7194 66.9497 52.8394 70.0926 46.438 71.3659L46.8282 73.3275ZM26.6061 71.3358C33.0015 73.9848 40.0388 74.678 46.8282 73.3275L46.438 71.3659C40.0366 72.6392 33.4014 71.9857 27.3714 69.488L26.6061 71.3358ZM10.8986 58.445C14.7444 64.2007 20.2107 68.6867 26.6061 71.3358L27.3714 69.488C21.3415 66.9903 16.1876 62.7606 12.5615 57.3338L10.8986 58.445ZM5 39C5 45.9223 7.05271 52.6892 10.8986 58.445L12.5615 57.3338C8.93542 51.907 7 45.5268 7 39H5ZM11 33C7.68629 33 5 35.6863 5 39H7C7 36.7909 8.79086 35 11 35V33ZM17 39C17 35.6863 14.3137 33 11 33V35C13.2091 35 15 36.7909 15 39H17Z" fill="black" fill-opacity="0.08" style="fill:black;fill-opacity:0.08;" mask="url(#path-3-inside-1_1683_2856)"/>
    </g>
    <defs>
        <filter id="filter0_d_1683_2856" x="0.4" y="0.8" width="79.2" height="79.2" filterUnits="userSpaceOnUse" color-interpolation-filters="sRGB">
            <feFlood flood-opacity="0" result="BackgroundImageFix"/>
            <feColorMatrix in="SourceAlpha" type="matrix" values="0 0 0 0 0 0 0 0 0 0 0 0 0 0 0 0 0 0 127 0" result="hardAlpha"/>
            <feOffset dy="1.4"/>
            <feGaussianBlur stdDeviation="2.8"/>
            <feColorMatrix type="matrix" values="0 0 0 0 0.901961 0 0 0 0 0.423529 0 0 0 0 0.141176 0 0 0 0.2 0"/>
            <feBlend mode="normal" in2="BackgroundImageFix" result="effect1_dropShadow_1683_2856"/>
            <feBlend mode="normal" in="SourceGraphic" in2="effect1_dropShadow_1683_2856" result="shape"/>
        </filter>
        <linearGradient id="paint0_linear_1683_2856" x1="40" y1="5" x2="40" y2="73" gradientUnits="userSpaceOnUse">
            <stop stop-color="#F09000" style="stop-color:#F09000;stop-color:color(display-p3 0.9401 0.5641 0.0000);stop-opacity:1;"/>
            <stop offset="1" stop-color="#EF6F26" style="stop-color:#EF6F26;stop-color:color(display-p3 0.9369 0.4337 0.1506);stop-opacity:1;"/>
        </linearGradient>
    </defs>
</svg>
