<svg width="96" height="96" viewBox="0 0 96 96" fill="none" xmlns="http://www.w3.org/2000/svg">
    <g clip-path="url(#clip0_1683_2885)">
        <path d="M48 34L48 43C48 47.4183 51.5817 51 56 51L68 51C72.4183 51 76 54.5817 76 59L76 66" stroke="#E9E3D8" style="stroke:#E9E3D8;stroke:color(display-p3 0.9127 0.8909 0.8473);stroke-opacity:1;" stroke-width="4" stroke-linecap="round" stroke-linejoin="round"/>
        <path d="M20 66L20 59C20 54.5817 23.5817 51 28 51L40 51C44.4183 51 48 47.4183 48 43L48 34" stroke="#E9E3D8" style="stroke:#E9E3D8;stroke:color(display-p3 0.9127 0.8909 0.8473);stroke-opacity:1;" stroke-width="4" stroke-linecap="round" stroke-linejoin="round"/>
        <path d="M48 66L48 47L48 34" stroke="#E9E3D8" style="stroke:#E9E3D8;stroke:color(display-p3 0.9137 0.8902 0.8471);stroke-opacity:1;" stroke-width="4" stroke-linecap="round" stroke-linejoin="round"/>
        <g filter="url(#filter0_d_1683_2885)">
            <rect x="35" y="12" width="26" height="26" rx="13" fill="url(#paint0_linear_1683_2885)" style=""/>
            <rect x="35.5" y="12.5" width="25" height="25" rx="12.5" stroke="black" stroke-opacity="0.04" style="stroke:black;stroke-opacity:0.04;"/>
        </g>
        <g filter="url(#filter1_d_1683_2885)">
            <path d="M47.0653 18.3166C47.4618 17.565 48.5382 17.565 48.9348 18.3166L50.3418 20.9834C50.4947 21.2732 50.7734 21.4757 51.0964 21.5316L54.0674 22.0457C54.9048 22.1905 55.2374 23.2143 54.6451 23.8237L52.5436 25.9859C52.3152 26.2209 52.2088 26.5486 52.2554 26.8729L52.6846 29.8574C52.8056 30.6985 51.9348 31.3312 51.1722 30.9563L48.4664 29.6258C48.1723 29.4812 47.8278 29.4812 47.5337 29.6258L44.8279 30.9563C44.0653 31.3312 43.1945 30.6985 43.3155 29.8574L43.7447 26.8729C43.7913 26.5486 43.6848 26.2209 43.4564 25.9859L41.355 23.8237C40.7627 23.2143 41.0953 22.1905 41.9327 22.0457L44.9037 21.5316C45.2266 21.4757 45.5054 21.2732 45.6583 20.9834L47.0653 18.3166Z" fill="white" style="fill:white;fill-opacity:1;"/>
        </g>
        <mask id="mask0_1683_2885" style="mask-type:alpha" maskUnits="userSpaceOnUse" x="65" y="62" width="22" height="22">
            <circle cx="76" cy="73" r="11" fill="#F3F4F6" style="fill:#F3F4F6;fill:color(display-p3 0.9529 0.9569 0.9647);fill-opacity:1;"/>
        </mask>
        <g mask="url(#mask0_1683_2885)">
            <g filter="url(#filter2_d_1683_2885)">
                <circle cx="76" cy="73" r="11" fill="url(#paint1_linear_1683_2885)" style=""/>
            </g>
            <circle cx="76" cy="73" r="10.5" stroke="black" stroke-opacity="0.04" style="stroke:black;stroke-opacity:0.04;"/>
            <g filter="url(#filter3_d_1683_2885)">
                <path d="M76 78.6313C77.8119 78.6313 79.6238 78.4423 80.6492 78.3133C81.1402 78.2515 81.5 77.8314 81.5 77.3364C81.5 75.6279 80.3046 74.1461 78.6055 73.9668C77.8014 73.8819 76.9007 73.8188 76 73.8188C75.0993 73.8188 74.1986 73.8819 73.3945 73.9668C71.6954 74.1461 70.5 75.6279 70.5 77.3364C70.5 77.8314 70.8598 78.2515 71.3508 78.3133C72.3762 78.4423 74.1881 78.6313 76 78.6313Z" fill="white" style="fill:white;fill-opacity:1;"/>
                <rect x="72.5625" y="66.1187" width="6.875" height="6.875" rx="3.4375" fill="white" style="fill:white;fill-opacity:1;"/>
            </g>
        </g>
        <mask id="mask1_1683_2885" style="mask-type:alpha" maskUnits="userSpaceOnUse" x="9" y="62" width="22" height="22">
            <circle cx="20" cy="73" r="11" fill="#F3F4F6" style="fill:#F3F4F6;fill:color(display-p3 0.9529 0.9569 0.9647);fill-opacity:1;"/>
        </mask>
        <g mask="url(#mask1_1683_2885)">
            <g filter="url(#filter4_d_1683_2885)">
                <circle cx="20" cy="73" r="11" fill="url(#paint2_linear_1683_2885)" style=""/>
            </g>
            <g filter="url(#filter5_d_1683_2885)">
                <circle cx="20" cy="73" r="11" fill="url(#paint3_linear_1683_2885)" style=""/>
                <circle cx="20" cy="73" r="10.5" stroke="black" stroke-opacity="0.04" style="stroke:black;stroke-opacity:0.04;"/>
            </g>
            <g filter="url(#filter6_d_1683_2885)">
                <path d="M20 78.6313C21.8119 78.6313 23.6238 78.4423 24.6492 78.3133C25.1402 78.2515 25.5 77.8314 25.5 77.3364C25.5 75.6279 24.3046 74.1461 22.6055 73.9668C21.8014 73.8819 20.9007 73.8188 20 73.8188C19.0993 73.8188 18.1986 73.8819 17.3945 73.9668C15.6954 74.1461 14.5 75.6279 14.5 77.3364C14.5 77.8314 14.8598 78.2515 15.3508 78.3133C16.3762 78.4423 18.1881 78.6313 20 78.6313Z" fill="white" style="fill:white;fill-opacity:1;"/>
                <rect x="16.5625" y="66.1187" width="6.875" height="6.875" rx="3.4375" fill="white" style="fill:white;fill-opacity:1;"/>
            </g>
        </g>
        <mask id="mask2_1683_2885" style="mask-type:alpha" maskUnits="userSpaceOnUse" x="37" y="62" width="22" height="22">
            <circle cx="48" cy="73" r="11" fill="#F3F4F6" style="fill:#F3F4F6;fill:color(display-p3 0.9529 0.9569 0.9647);fill-opacity:1;"/>
        </mask>
        <g mask="url(#mask2_1683_2885)">
            <g filter="url(#filter7_d_1683_2885)">
                <circle cx="48" cy="73" r="11" fill="url(#paint4_linear_1683_2885)" style=""/>
            </g>
            <circle cx="48" cy="73" r="10.5" stroke="black" stroke-opacity="0.04" style="stroke:black;stroke-opacity:0.04;"/>
            <g filter="url(#filter8_d_1683_2885)">
                <path d="M48 78.6313C49.8119 78.6313 51.6238 78.4423 52.6492 78.3133C53.1402 78.2515 53.5 77.8314 53.5 77.3364C53.5 75.6279 52.3046 74.1461 50.6055 73.9668C49.8014 73.8819 48.9007 73.8188 48 73.8188C47.0993 73.8188 46.1986 73.8819 45.3945 73.9668C43.6954 74.1461 42.5 75.6279 42.5 77.3364C42.5 77.8314 42.8598 78.2515 43.3508 78.3133C44.3762 78.4423 46.1881 78.6313 48 78.6313Z" fill="white" style="fill:white;fill-opacity:1;"/>
                <rect x="44.5625" y="66.1187" width="6.875" height="6.875" rx="3.4375" fill="white" style="fill:white;fill-opacity:1;"/>
            </g>
        </g>
    </g>
    <defs>
        <filter id="filter0_d_1683_2885" x="29.4" y="7.8" width="37.2" height="37.2" filterUnits="userSpaceOnUse" color-interpolation-filters="sRGB">
            <feFlood flood-opacity="0" result="BackgroundImageFix"/>
            <feColorMatrix in="SourceAlpha" type="matrix" values="0 0 0 0 0 0 0 0 0 0 0 0 0 0 0 0 0 0 127 0" result="hardAlpha"/>
            <feOffset dy="1.4"/>
            <feGaussianBlur stdDeviation="2.8"/>
            <feColorMatrix type="matrix" values="0 0 0 0 0.901961 0 0 0 0 0.423529 0 0 0 0 0.141176 0 0 0 0.2 0"/>
            <feBlend mode="normal" in2="BackgroundImageFix" result="effect1_dropShadow_1683_2885"/>
            <feBlend mode="normal" in="SourceGraphic" in2="effect1_dropShadow_1683_2885" result="shape"/>
        </filter>
        <filter id="filter1_d_1683_2885" x="39.9981" y="17.7529" width="16.0039" height="15.4277" filterUnits="userSpaceOnUse" color-interpolation-filters="sRGB">
            <feFlood flood-opacity="0" result="BackgroundImageFix"/>
            <feColorMatrix in="SourceAlpha" type="matrix" values="0 0 0 0 0 0 0 0 0 0 0 0 0 0 0 0 0 0 127 0" result="hardAlpha"/>
            <feOffset dy="1.05687"/>
            <feGaussianBlur stdDeviation="0.528437"/>
            <feComposite in2="hardAlpha" operator="out"/>
            <feColorMatrix type="matrix" values="0 0 0 0 0 0 0 0 0 0 0 0 0 0 0 0 0 0 0.1 0"/>
            <feBlend mode="normal" in2="BackgroundImageFix" result="effect1_dropShadow_1683_2885"/>
            <feBlend mode="normal" in="SourceGraphic" in2="effect1_dropShadow_1683_2885" result="shape"/>
        </filter>
        <filter id="filter2_d_1683_2885" x="59.4" y="57.8" width="33.2" height="33.2" filterUnits="userSpaceOnUse" color-interpolation-filters="sRGB">
            <feFlood flood-opacity="0" result="BackgroundImageFix"/>
            <feColorMatrix in="SourceAlpha" type="matrix" values="0 0 0 0 0 0 0 0 0 0 0 0 0 0 0 0 0 0 127 0" result="hardAlpha"/>
            <feOffset dy="1.4"/>
            <feGaussianBlur stdDeviation="2.8"/>
            <feColorMatrix type="matrix" values="0 0 0 0 0.901961 0 0 0 0 0.423529 0 0 0 0 0.141176 0 0 0 0.2 0"/>
            <feBlend mode="normal" in2="BackgroundImageFix" result="effect1_dropShadow_1683_2885"/>
            <feBlend mode="normal" in="SourceGraphic" in2="effect1_dropShadow_1683_2885" result="shape"/>
        </filter>
        <filter id="filter3_d_1683_2885" x="69.5" y="66.1187" width="13" height="14.5127" filterUnits="userSpaceOnUse" color-interpolation-filters="sRGB">
            <feFlood flood-opacity="0" result="BackgroundImageFix"/>
            <feColorMatrix in="SourceAlpha" type="matrix" values="0 0 0 0 0 0 0 0 0 0 0 0 0 0 0 0 0 0 127 0" result="hardAlpha"/>
            <feOffset dy="1"/>
            <feGaussianBlur stdDeviation="0.5"/>
            <feComposite in2="hardAlpha" operator="out"/>
            <feColorMatrix type="matrix" values="0 0 0 0 0 0 0 0 0 0 0 0 0 0 0 0 0 0 0.1 0"/>
            <feBlend mode="normal" in2="BackgroundImageFix" result="effect1_dropShadow_1683_2885"/>
            <feBlend mode="normal" in="SourceGraphic" in2="effect1_dropShadow_1683_2885" result="shape"/>
        </filter>
        <filter id="filter4_d_1683_2885" x="3.4" y="57.8" width="33.2" height="33.2" filterUnits="userSpaceOnUse" color-interpolation-filters="sRGB">
            <feFlood flood-opacity="0" result="BackgroundImageFix"/>
            <feColorMatrix in="SourceAlpha" type="matrix" values="0 0 0 0 0 0 0 0 0 0 0 0 0 0 0 0 0 0 127 0" result="hardAlpha"/>
            <feOffset dy="1.4"/>
            <feGaussianBlur stdDeviation="2.8"/>
            <feColorMatrix type="matrix" values="0 0 0 0 0.901961 0 0 0 0 0.423529 0 0 0 0 0.141176 0 0 0 0.2 0"/>
            <feBlend mode="normal" in2="BackgroundImageFix" result="effect1_dropShadow_1683_2885"/>
            <feBlend mode="normal" in="SourceGraphic" in2="effect1_dropShadow_1683_2885" result="shape"/>
        </filter>
        <filter id="filter5_d_1683_2885" x="3.4" y="57.8" width="33.2" height="33.2" filterUnits="userSpaceOnUse" color-interpolation-filters="sRGB">
            <feFlood flood-opacity="0" result="BackgroundImageFix"/>
            <feColorMatrix in="SourceAlpha" type="matrix" values="0 0 0 0 0 0 0 0 0 0 0 0 0 0 0 0 0 0 127 0" result="hardAlpha"/>
            <feOffset dy="1.4"/>
            <feGaussianBlur stdDeviation="2.8"/>
            <feColorMatrix type="matrix" values="0 0 0 0 0.901961 0 0 0 0 0.423529 0 0 0 0 0.141176 0 0 0 0.2 0"/>
            <feBlend mode="normal" in2="BackgroundImageFix" result="effect1_dropShadow_1683_2885"/>
            <feBlend mode="normal" in="SourceGraphic" in2="effect1_dropShadow_1683_2885" result="shape"/>
        </filter>
        <filter id="filter6_d_1683_2885" x="13.5" y="66.1187" width="13" height="14.5127" filterUnits="userSpaceOnUse" color-interpolation-filters="sRGB">
            <feFlood flood-opacity="0" result="BackgroundImageFix"/>
            <feColorMatrix in="SourceAlpha" type="matrix" values="0 0 0 0 0 0 0 0 0 0 0 0 0 0 0 0 0 0 127 0" result="hardAlpha"/>
            <feOffset dy="1"/>
            <feGaussianBlur stdDeviation="0.5"/>
            <feComposite in2="hardAlpha" operator="out"/>
            <feColorMatrix type="matrix" values="0 0 0 0 0 0 0 0 0 0 0 0 0 0 0 0 0 0 0.1 0"/>
            <feBlend mode="normal" in2="BackgroundImageFix" result="effect1_dropShadow_1683_2885"/>
            <feBlend mode="normal" in="SourceGraphic" in2="effect1_dropShadow_1683_2885" result="shape"/>
        </filter>
        <filter id="filter7_d_1683_2885" x="31.4" y="57.8" width="33.2" height="33.2" filterUnits="userSpaceOnUse" color-interpolation-filters="sRGB">
            <feFlood flood-opacity="0" result="BackgroundImageFix"/>
            <feColorMatrix in="SourceAlpha" type="matrix" values="0 0 0 0 0 0 0 0 0 0 0 0 0 0 0 0 0 0 127 0" result="hardAlpha"/>
            <feOffset dy="1.4"/>
            <feGaussianBlur stdDeviation="2.8"/>
            <feColorMatrix type="matrix" values="0 0 0 0 0.901961 0 0 0 0 0.423529 0 0 0 0 0.141176 0 0 0 0.2 0"/>
            <feBlend mode="normal" in2="BackgroundImageFix" result="effect1_dropShadow_1683_2885"/>
            <feBlend mode="normal" in="SourceGraphic" in2="effect1_dropShadow_1683_2885" result="shape"/>
        </filter>
        <filter id="filter8_d_1683_2885" x="41.5" y="66.1187" width="13" height="14.5127" filterUnits="userSpaceOnUse" color-interpolation-filters="sRGB">
            <feFlood flood-opacity="0" result="BackgroundImageFix"/>
            <feColorMatrix in="SourceAlpha" type="matrix" values="0 0 0 0 0 0 0 0 0 0 0 0 0 0 0 0 0 0 127 0" result="hardAlpha"/>
            <feOffset dy="1"/>
            <feGaussianBlur stdDeviation="0.5"/>
            <feComposite in2="hardAlpha" operator="out"/>
            <feColorMatrix type="matrix" values="0 0 0 0 0 0 0 0 0 0 0 0 0 0 0 0 0 0 0.1 0"/>
            <feBlend mode="normal" in2="BackgroundImageFix" result="effect1_dropShadow_1683_2885"/>
            <feBlend mode="normal" in="SourceGraphic" in2="effect1_dropShadow_1683_2885" result="shape"/>
        </filter>
        <linearGradient id="paint0_linear_1683_2885" x1="48" y1="12" x2="48" y2="38" gradientUnits="userSpaceOnUse">
            <stop stop-color="#F09000" style="stop-color:#F09000;stop-color:color(display-p3 0.9401 0.5641 0.0000);stop-opacity:1;"/>
            <stop offset="1" stop-color="#EF6F26" style="stop-color:#EF6F26;stop-color:color(display-p3 0.9369 0.4337 0.1506);stop-opacity:1;"/>
        </linearGradient>
        <linearGradient id="paint1_linear_1683_2885" x1="76" y1="62" x2="76" y2="84" gradientUnits="userSpaceOnUse">
            <stop stop-color="#479FFF" style="stop-color:#479FFF;stop-color:color(display-p3 0.2800 0.6245 1.0000);stop-opacity:1;"/>
            <stop offset="1" stop-color="#007AFF" style="stop-color:#007AFF;stop-color:color(display-p3 0.0000 0.4784 1.0000);stop-opacity:1;"/>
        </linearGradient>
        <linearGradient id="paint2_linear_1683_2885" x1="20" y1="62" x2="20" y2="84" gradientUnits="userSpaceOnUse">
            <stop stop-color="#F57575" style="stop-color:#F57575;stop-color:color(display-p3 0.9599 0.4601 0.4601);stop-opacity:1;"/>
            <stop offset="1" stop-color="#EF2626" style="stop-color:#EF2626;stop-color:color(display-p3 0.9373 0.1490 0.1490);stop-opacity:1;"/>
        </linearGradient>
        <linearGradient id="paint3_linear_1683_2885" x1="20" y1="62" x2="20" y2="84" gradientUnits="userSpaceOnUse">
            <stop stop-color="#EFC326" style="stop-color:#EFC326;stop-color:color(display-p3 0.9369 0.7639 0.1506);stop-opacity:1;"/>
            <stop offset="1" stop-color="#F0AD00" style="stop-color:#F0AD00;stop-color:color(display-p3 0.9401 0.6769 0.0000);stop-opacity:1;"/>
        </linearGradient>
        <linearGradient id="paint4_linear_1683_2885" x1="48" y1="62" x2="48" y2="84" gradientUnits="userSpaceOnUse">
            <stop stop-color="#5CD27A" style="stop-color:#5CD27A;stop-color:color(display-p3 0.3614 0.8237 0.4778);stop-opacity:1;"/>
            <stop offset="1" stop-color="#34C759" style="stop-color:#34C759;stop-color:color(display-p3 0.2039 0.7804 0.3490);stop-opacity:1;"/>
        </linearGradient>
        <clipPath id="clip0_1683_2885">
            <rect width="96" height="96" fill="white" style="fill:white;fill-opacity:1;"/>
        </clipPath>
    </defs>
</svg>
